# xmcd CD database file
#
# Track frame offsets:
#	150
#	12904
#	26054
#	36879
#	49031
#	62216
#	82566
#	95904
#	107741
#	117754
#	130629
#	144929
#	162574
#	179119
#	193674
#	209279
#
# Disc length: 3006 seconds
#
# Revision: 2
# Processed by: cddbd v1.5.2PL0 Copyright (c) Steve Scherf et al.
# Submitted via: CDex 1.51
#
DISCID=dc0bbc10
DTITLE=Various Artist - Stand By Your Man - The Greatest Country Love Songs [CD 2)
DYEAR=2004
DGENRE=Country
TTITLE0=Johnny Cash and George Jones - I Still Miss Someone
TTITLE1=Merle Haggard - To All The Girls I've Loved Before
TTITLE2=Tanya Tucker - Would You Lay With Me (In A Field Of Stone)
TTITLE3=George Jones - The Door
TTITLE4=Crystal Gayle - Heart Mender
TTITLE5=Rosanne Cash - I Don't Have To Crawl
TTITLE6=Moe Bandy - Yesterday Once More
TTITLE7=Barbara Fairchild - Cheatin' Is
TTITLE8=Marty Robbins - I Can't Help It (If I'm Still In Love With You)
TTITLE9=Keith Whitley - The Birmingham Turnaround
TTITLE10=Sweethearts Of The Rodeo - So Sad (To Watch Good Love With You)
TTITLE11=Beverly Jo Scott - One Shot Shy
TTITLE12=Ty Herndon - What Mattered Most
TTITLE13=Lacy J. Dalton - Blue-Eyed Blues
TTITLE14=Linda Davis - Some Things Are Meant To Be
TTITLE15=Mark Gray and Tammy Wynette - Sometimes When We Touch
EXTD=YEAR: 2004
EXTT0=
EXTT1=
EXTT2=
EXTT3=
EXTT4=
EXTT5=
EXTT6=
EXTT7=
EXTT8=
EXTT9=
EXTT10=
EXTT11=
EXTT12=
EXTT13=
EXTT14=
EXTT15=
PLAYORDER=
